<?xml version="1.0" standalone="no"?>
<!DOCTYPE svg PUBLIC "-//W3C//DTD SVG 20010904//EN"
 "http://www.w3.org/TR/2001/REC-SVG-20010904/DTD/svg10.dtd">
<svg version="1.0" xmlns="http://www.w3.org/2000/svg"
 width="98.000000pt" height="98.000000pt" viewBox="0 0 98.000000 98.000000"
 preserveAspectRatio="xMidYMid meet">
<metadata>
Created by potrace 1.11, written by Peter Selinger 2001-2013
</metadata>
<g transform="translate(0.000000,98.000000) scale(0.100000,-0.100000)"
fill="#000000" stroke="none">
<path d="M715 911 c3 -5 -5 -17 -17 -25 -20 -14 -18 -21 5 -17 4 0 7 -5 8 -11
0 -7 2 -21 4 -30 5 -25 -13 -23 -103 11 -42 16 -87 32 -99 36 -21 6 -120 -25
-365 -115 -69 -25 -88 -36 -88 -51 0 -16 5 -18 28 -13 15 4 33 11 40 17 9 7
12 -6 13 -59 1 -38 0 -80 -1 -93 -1 -19 2 -23 19 -18 17 4 28 -10 72 -87 78
-137 168 -244 192 -229 6 3 7 1 3 -5 -5 -8 -25 -3 -65 18 -98 49 -152 118
-166 210 -4 25 -8 47 -11 51 -6 10 -138 7 -151 -3 -24 -19 3 -134 52 -217 151
-257 529 -301 746 -86 75 75 127 190 125 275 l-1 35 -75 2 c-41 1 -78 2 -82 2
-18 2 6 37 25 37 21 -1 22 3 22 82 l0 83 25 -7 c42 -11 53 -10 55 8 2 12 -17
24 -78 46 -73 26 -82 32 -84 56 -1 16 6 34 18 45 13 12 17 21 10 26 -6 3 -14
-1 -17 -9 -3 -9 -12 -16 -19 -16 -8 0 -12 -11 -10 -30 1 -16 -1 -30 -6 -30 -5
0 -9 16 -9 35 0 19 -4 35 -10 35 -5 0 -10 5 -10 11 0 7 10 9 25 7 28 -6 42 6
23 19 -19 11 -50 14 -43 4z m-75 -127 c74 -25 141 -47 148 -48 21 -4 29 -24
28 -71 -3 -56 -49 -125 -106 -155 -21 -11 -26 -10 -42 10 -10 12 -18 35 -18
51 0 47 -17 33 -35 -28 -20 -68 -48 -135 -39 -93 3 14 6 65 8 115 4 89 4 89
-15 65 -35 -46 -50 -58 -68 -53 -22 5 -53 66 -75 146 -9 31 -19 57 -21 57 -9
0 5 -223 20 -315 4 -25 3 -27 -5 -10 -14 30 -33 79 -32 85 0 3 -8 17 -18 30
l-19 25 4 -30 c4 -38 -19 -75 -48 -75 -23 0 -62 31 -109 88 -23 28 -28 43 -28
91 l0 57 153 51 c83 29 159 52 167 52 9 1 76 -20 150 -45z m148 -336 c-5 -29
-17 -66 -25 -82 -21 -40 -82 -100 -124 -121 l-34 -17 37 38 c37 39 119 171
132 212 14 42 23 21 14 -30z m-627 33 c4 0 10 -18 14 -38 17 -95 77 -173 166
-218 27 -14 52 -25 56 -25 5 0 9 -4 9 -10 1 -5 2 -14 3 -20 0 -5 6 -10 12 -10
6 0 8 9 4 22 -6 17 -4 20 10 15 9 -4 28 -7 41 -7 18 0 25 -5 23 -17 -1 -10 -1
-31 0 -48 l1 -29 17 24 c12 17 13 25 5 28 -17 5 -15 19 4 26 19 7 47 -12 38
-25 -3 -5 -10 -7 -15 -4 -5 4 -9 1 -9 -4 0 -13 3 -13 24 -5 20 8 21 44 2 44
-27 0 -25 16 1 18 14 1 31 6 37 11 6 4 23 11 38 15 46 11 132 104 152 164 10
29 19 59 20 67 1 8 5 18 10 22 11 11 100 11 107 0 11 -15 -19 -126 -48 -179
-74 -136 -231 -216 -408 -210 -74 3 -85 4 -85 14 0 5 -6 8 -13 5 -6 -2 -27 2
-45 9 -18 7 -36 14 -40 15 -4 1 -15 4 -24 7 -10 2 -18 9 -18 15 0 6 -3 8 -6 4
-7 -6 -31 12 -89 69 -53 51 -93 133 -101 205 l-6 55 54 -2 c29 -1 56 -2 59 -3z
m366 -195 c7 10 13 21 13 26 0 4 4 8 8 8 5 0 7 -14 6 -31 -1 -19 5 -38 17 -50
10 -10 16 -19 12 -20 -5 0 -36 -2 -71 -6 -62 -5 -62 -5 -54 18 5 13 8 39 6 58
l-3 34 26 -28 c25 -26 27 -27 40 -9z"/>
<path d="M483 658 c-5 -7 -8 -19 -7 -25 1 -7 2 -17 3 -22 2 -13 28 -21 46 -15
20 8 29 42 15 59 -15 18 -44 19 -57 3z"/>
<path d="M670 585 c-10 -12 -10 -21 -2 -40 13 -29 34 -32 56 -9 19 18 19 20 6
45 -13 23 -43 25 -60 4z"/>
<path d="M276 571 c-15 -17 -12 -60 5 -62 5 -1 15 -2 22 -3 20 -3 45 24 40 43
-3 10 -15 23 -28 29 -18 9 -26 7 -39 -7z"/>
<path d="M706 234 c-9 -8 -16 -12 -16 -7 0 4 -4 1 -9 -6 -7 -10 -3 -24 10 -43
21 -29 28 -29 73 7 16 12 18 19 8 40 -13 29 -43 33 -66 9z m46 -9 c13 -18 9
-34 -13 -45 -17 -9 -23 -8 -34 7 -11 15 -11 21 2 35 16 18 33 19 45 3z"/>
<path d="M246 212 c-14 -28 -14 -30 12 -51 14 -11 30 -21 34 -21 11 0 21 20
13 28 -3 3 -10 1 -14 -6 -6 -9 -12 -8 -25 7 -14 16 -15 23 -6 40 11 22 20 21
53 -7 9 -8 17 -10 17 -5 0 14 -19 29 -47 37 -18 6 -25 1 -37 -22z"/>
<path d="M342 171 c-11 -32 -6 -45 23 -49 16 -2 17 -1 5 7 -16 11 -23 51 -9
51 5 0 9 5 9 10 0 21 -18 9 -28 -19z"/>
<path d="M615 192 c-6 -4 -10 -14 -10 -22 1 -8 -3 -21 -8 -28 -16 -20 0 -25
25 -8 12 9 16 16 9 16 -9 0 -11 8 -7 25 7 27 6 28 -9 17z"/>
<path d="M456 168 c-12 -40 -13 -58 -2 -58 7 0 12 15 12 35 0 36 -4 44 -10 23z"/>
<path d="M640 173 c0 -14 31 -46 37 -39 3 3 -4 15 -16 27 -12 13 -21 18 -21
12z"/>
<path d="M400 130 c-8 -5 -12 -11 -9 -14 2 -3 11 -1 19 4 8 5 12 11 9 14 -2 3
-11 1 -19 -4z"/>
<path d="M967 371 c-8 -64 -53 -148 -103 -196 -25 -25 -45 -45 -43 -46 2 0 24
-1 49 -2 29 -2 58 -11 78 -25 l32 -23 0 165 c0 91 -2 166 -4 166 -2 0 -6 -18
-9 -39z m-10 -176 c-2 -45 -7 -50 -39 -37 -16 7 -16 11 9 45 14 20 27 37 29
37 1 0 1 -20 1 -45z"/>
<path d="M0 241 c0 -89 3 -161 6 -161 3 0 20 10 37 22 21 15 46 22 79 23 26 0
48 1 48 3 0 2 -20 22 -44 45 -48 45 -94 127 -103 183 -13 82 -23 34 -23 -115z
m66 -44 c17 -21 18 -20 -13 -36 -13 -6 -23 -8 -24 -4 -1 4 -3 28 -4 53 -3 42
-3 43 11 25 8 -11 21 -28 30 -38z"/>
</g>
</svg>
